<mxfile host="65bd71144e">
    <diagram id="zw_MgG5zRByUEj3AtD1Y" name="Page-1">
        <mxGraphModel dx="883" dy="622" grid="1" gridSize="10" guides="1" tooltips="1" connect="1" arrows="1" fold="1" page="1" pageScale="1" pageWidth="850" pageHeight="1100" math="0" shadow="0">
            <root>
                <mxCell id="0"/>
                <mxCell id="1" parent="0"/>
                <mxCell id="2" value="" style="shape=actor;whiteSpace=wrap;html=1;" vertex="1" parent="1">
                    <mxGeometry x="400" y="540" width="40" height="60" as="geometry"/>
                </mxCell>
                <mxCell id="3" value="payment" style="ellipse;shape=cloud;whiteSpace=wrap;html=1;align=center;" vertex="1" parent="1">
                    <mxGeometry x="530" y="370" width="100" height="60" as="geometry"/>
                </mxCell>
                <mxCell id="4" value="invoice" style="ellipse;shape=cloud;whiteSpace=wrap;html=1;align=center;" vertex="1" parent="1">
                    <mxGeometry x="425" y="320" width="100" height="60" as="geometry"/>
                </mxCell>
                <mxCell id="5" value="order" style="ellipse;shape=cloud;whiteSpace=wrap;html=1;align=center;" vertex="1" parent="1">
                    <mxGeometry x="310" y="320" width="100" height="60" as="geometry"/>
                </mxCell>
                <mxCell id="6" value="product" style="ellipse;shape=cloud;whiteSpace=wrap;html=1;align=center;" vertex="1" parent="1">
                    <mxGeometry x="220" y="370" width="100" height="60" as="geometry"/>
                </mxCell>
                <mxCell id="7" value="transport" style="ellipse;shape=cloud;whiteSpace=wrap;html=1;align=center;" vertex="1" parent="1">
                    <mxGeometry x="140" y="430" width="100" height="60" as="geometry"/>
                </mxCell>
                <mxCell id="8" value="company" style="ellipse;shape=cloud;whiteSpace=wrap;html=1;align=center;" vertex="1" parent="1">
                    <mxGeometry x="100" y="500" width="100" height="60" as="geometry"/>
                </mxCell>
                <mxCell id="9" value="customer" style="ellipse;shape=cloud;whiteSpace=wrap;html=1;align=center;" vertex="1" parent="1">
                    <mxGeometry x="660" y="500" width="100" height="60" as="geometry"/>
                </mxCell>
                <mxCell id="11" value="account" style="ellipse;shape=cloud;whiteSpace=wrap;html=1;align=center;" vertex="1" parent="1">
                    <mxGeometry x="600" y="440" width="100" height="60" as="geometry"/>
                </mxCell>
            </root>
        </mxGraphModel>
    </diagram>
</mxfile>